<svg xmlns="http://www.w3.org/2000/svg" xmlns:xlink="http://www.w3.org/1999/xlink" width="320" zoomAndPan="magnify" viewBox="0 0 240 239.999995" height="320" preserveAspectRatio="xMidYMid meet" version="1.0"><defs><clipPath id="1ca50bca88"><path d="M 120 0 C 53.726562 0 0 53.726562 0 120 C 0 186.273438 53.726562 240 120 240 C 186.273438 240 240 186.273438 240 120 C 240 53.726562 186.273438 0 120 0 Z M 120 0 " clip-rule="nonzero"/></clipPath><clipPath id="730c2c5667"><path d="M 57.605469 35.890625 L 182.105469 35.890625 L 182.105469 203.890625 L 57.605469 203.890625 Z M 57.605469 35.890625 " clip-rule="nonzero"/></clipPath></defs><g clip-path="url(#1ca50bca88)"><rect x="-24" width="288" fill="#ff3131" y="-23.999999" height="287.999994" fill-opacity="1"/></g><path fill="#ffffff" d="M 119.996094 38.617188 C 87.039062 38.617188 60.320312 65.335938 60.320312 98.296875 C 60.320312 131.253906 119.996094 201.375 119.996094 201.375 C 119.996094 201.375 179.675781 131.253906 179.675781 98.296875 C 179.675781 65.335938 152.957031 38.617188 119.996094 38.617188 Z M 119.996094 144.75 C 94.527344 144.75 73.882812 124.101562 73.882812 98.636719 C 73.882812 73.167969 94.527344 52.519531 119.996094 52.519531 C 145.464844 52.519531 166.113281 73.167969 166.113281 98.636719 C 166.113281 124.101562 145.464844 144.75 119.996094 144.75 Z M 119.996094 144.75 " fill-opacity="1" fill-rule="nonzero"/><path fill="#ffffff" d="M 149.835938 98.296875 L 149.835938 117.285156 L 141.699219 117.285156 L 141.699219 106.433594 L 98.296875 106.433594 L 98.296875 117.285156 L 90.160156 117.285156 L 90.160156 76.59375 L 98.296875 76.59375 L 98.296875 98.296875 Z M 149.835938 98.296875 " fill-opacity="1" fill-rule="nonzero"/><path fill="#ffffff" d="M 98.296875 87.445312 L 149.835938 87.445312 L 149.835938 98.296875 L 98.296875 98.296875 Z M 98.296875 87.445312 " fill-opacity="1" fill-rule="nonzero"/><g clip-path="url(#730c2c5667)"><path fill="#ffffff" d="M 119.996094 35.90625 C 85.59375 35.90625 57.605469 63.894531 57.605469 98.296875 C 57.605469 131.867188 115.46875 200.238281 117.933594 203.136719 C 118.449219 203.738281 119.199219 204.089844 119.996094 204.089844 C 120.792969 204.089844 121.546875 203.738281 122.0625 203.136719 C 124.527344 200.238281 182.386719 131.867188 182.386719 98.296875 C 182.386719 63.894531 154.402344 35.90625 119.996094 35.90625 Z M 119.996094 197.136719 C 109.539062 184.460938 63.03125 126.484375 63.03125 98.296875 C 63.03125 66.882812 88.585938 41.332031 119.996094 41.332031 C 151.410156 41.332031 176.960938 66.882812 176.960938 98.296875 C 176.960938 126.472656 130.453125 184.460938 119.996094 197.136719 Z M 119.996094 197.136719 " fill-opacity="1" fill-rule="nonzero"/></g><path fill="#ffffff" d="M 119.996094 49.808594 C 93.074219 49.808594 71.171875 71.710938 71.171875 98.636719 C 71.171875 125.558594 93.074219 147.460938 119.996094 147.460938 C 146.921875 147.460938 168.824219 125.558594 168.824219 98.636719 C 168.824219 71.710938 146.921875 49.808594 119.996094 49.808594 Z M 119.996094 142.039062 C 96.066406 142.039062 76.59375 122.566406 76.59375 98.636719 C 76.59375 74.703125 96.066406 55.234375 119.996094 55.234375 C 143.929688 55.234375 163.398438 74.703125 163.398438 98.636719 C 163.398438 122.566406 143.929688 142.039062 119.996094 142.039062 Z M 119.996094 142.039062 " fill-opacity="1" fill-rule="nonzero"/><path fill="#ffffff" d="M 149.835938 84.734375 L 101.007812 84.734375 L 101.007812 76.59375 C 101.007812 75.097656 99.796875 73.882812 98.296875 73.882812 L 90.160156 73.882812 C 88.660156 73.882812 87.445312 75.097656 87.445312 76.59375 L 87.445312 117.285156 C 87.445312 118.78125 88.660156 119.996094 90.160156 119.996094 L 98.296875 119.996094 C 99.796875 119.996094 101.007812 118.78125 101.007812 117.285156 L 101.007812 109.144531 L 138.984375 109.144531 L 138.984375 117.285156 C 138.984375 118.78125 140.199219 119.996094 141.699219 119.996094 L 149.835938 119.996094 C 151.335938 119.996094 152.550781 118.78125 152.550781 117.285156 L 152.550781 87.445312 C 152.550781 85.945312 151.335938 84.734375 149.835938 84.734375 Z M 147.125 114.570312 L 144.410156 114.570312 L 144.410156 106.433594 C 144.410156 104.933594 143.195312 103.722656 141.699219 103.722656 L 98.296875 103.722656 C 96.796875 103.722656 95.582031 104.933594 95.582031 106.433594 L 95.582031 114.570312 L 92.871094 114.570312 L 92.871094 79.308594 L 95.582031 79.308594 L 95.582031 98.296875 C 95.582031 99.792969 96.796875 101.007812 98.296875 101.007812 L 147.125 101.007812 Z M 147.125 95.582031 L 101.007812 95.582031 L 101.007812 90.15625 L 147.125 90.15625 Z M 147.125 95.582031 " fill-opacity="1" fill-rule="nonzero"/></svg>