<svg xmlns="http://www.w3.org/2000/svg" xmlns:xlink="http://www.w3.org/1999/xlink" width="455" zoomAndPan="magnify" viewBox="0 0 341.25 81.749997" height="109" preserveAspectRatio="xMidYMid meet" version="1.0"><defs><g/><clipPath id="f720975e90"><path d="M 0.144531 6.570312 L 61.308594 6.570312 L 61.308594 67.972656 L 0.144531 67.972656 Z M 0.144531 6.570312 " clip-rule="nonzero"/></clipPath><clipPath id="12bdc578d7"><path d="M 18.089844 6.808594 L 43.363281 6.808594 C 48.125 6.808594 52.6875 8.699219 56.054688 12.066406 C 59.417969 15.429688 61.308594 19.996094 61.308594 24.753906 L 61.308594 50.027344 C 61.308594 54.789062 59.417969 59.351562 56.054688 62.71875 C 52.6875 66.082031 48.125 67.972656 43.363281 67.972656 L 18.089844 67.972656 C 13.332031 67.972656 8.769531 66.082031 5.402344 62.71875 C 2.035156 59.351562 0.144531 54.789062 0.144531 50.027344 L 0.144531 24.753906 C 0.144531 19.996094 2.035156 15.429688 5.402344 12.066406 C 8.769531 8.699219 13.332031 6.808594 18.089844 6.808594 Z M 18.089844 6.808594 " clip-rule="nonzero"/></clipPath><clipPath id="5012860e4d"><path d="M 14 17 L 47.804688 17 L 47.804688 62.6875 L 14 62.6875 Z M 14 17 " clip-rule="nonzero"/></clipPath><clipPath id="b982ca123d"><path d="M 13.410156 33.648438 L 13.410156 45.703125 C 13.410156 55.269531 21.164062 63.023438 30.726562 63.023438 C 40.292969 63.023438 48.046875 55.269531 48.046875 45.703125 L 48.046875 33.648438 C 48.046875 24.085938 40.292969 16.332031 30.726562 16.332031 C 21.164062 16.332031 13.410156 24.085938 13.410156 33.648438 Z M 13.410156 33.648438 " clip-rule="nonzero"/></clipPath><clipPath id="fde28943dc"><path d="M 22 27 L 40 27 L 40 39 L 22 39 Z M 22 27 " clip-rule="nonzero"/></clipPath><clipPath id="f8b633c385"><path d="M 13.410156 33.648438 L 13.410156 45.703125 C 13.410156 55.269531 21.164062 63.023438 30.726562 63.023438 C 40.292969 63.023438 48.046875 55.269531 48.046875 45.703125 L 48.046875 33.648438 C 48.046875 24.085938 40.292969 16.332031 30.726562 16.332031 C 21.164062 16.332031 13.410156 24.085938 13.410156 33.648438 Z M 13.410156 33.648438 " clip-rule="nonzero"/></clipPath><clipPath id="4b767f3d04"><path d="M 24 30 L 40 30 L 40 34 L 24 34 Z M 24 30 " clip-rule="nonzero"/></clipPath><clipPath id="1209beaaa0"><path d="M 13.410156 33.648438 L 13.410156 45.703125 C 13.410156 55.269531 21.164062 63.023438 30.726562 63.023438 C 40.292969 63.023438 48.046875 55.269531 48.046875 45.703125 L 48.046875 33.648438 C 48.046875 24.085938 40.292969 16.332031 30.726562 16.332031 C 21.164062 16.332031 13.410156 24.085938 13.410156 33.648438 Z M 13.410156 33.648438 " clip-rule="nonzero"/></clipPath><clipPath id="17f0baa21c"><path d="M 13.410156 16.332031 L 47.804688 16.332031 L 47.804688 62.6875 L 13.410156 62.6875 Z M 13.410156 16.332031 " clip-rule="nonzero"/></clipPath><clipPath id="a7fb7f4d05"><path d="M 13.410156 33.648438 L 13.410156 45.703125 C 13.410156 55.269531 21.164062 63.023438 30.726562 63.023438 C 40.292969 63.023438 48.046875 55.269531 48.046875 45.703125 L 48.046875 33.648438 C 48.046875 24.085938 40.292969 16.332031 30.726562 16.332031 C 21.164062 16.332031 13.410156 24.085938 13.410156 33.648438 Z M 13.410156 33.648438 " clip-rule="nonzero"/></clipPath><clipPath id="1f4451a1c7"><path d="M 17 20 L 45 20 L 45 48 L 17 48 Z M 17 20 " clip-rule="nonzero"/></clipPath><clipPath id="bf830198c6"><path d="M 13.410156 33.648438 L 13.410156 45.703125 C 13.410156 55.269531 21.164062 63.023438 30.726562 63.023438 C 40.292969 63.023438 48.046875 55.269531 48.046875 45.703125 L 48.046875 33.648438 C 48.046875 24.085938 40.292969 16.332031 30.726562 16.332031 C 21.164062 16.332031 13.410156 24.085938 13.410156 33.648438 Z M 13.410156 33.648438 " clip-rule="nonzero"/></clipPath><clipPath id="dd96fc54c8"><path d="M 21 26 L 40 26 L 40 40 L 21 40 Z M 21 26 " clip-rule="nonzero"/></clipPath><clipPath id="c7812ff3a9"><path d="M 13.410156 33.648438 L 13.410156 45.703125 C 13.410156 55.269531 21.164062 63.023438 30.726562 63.023438 C 40.292969 63.023438 48.046875 55.269531 48.046875 45.703125 L 48.046875 33.648438 C 48.046875 24.085938 40.292969 16.332031 30.726562 16.332031 C 21.164062 16.332031 13.410156 24.085938 13.410156 33.648438 Z M 13.410156 33.648438 " clip-rule="nonzero"/></clipPath></defs><g clip-path="url(#f720975e90)"><g clip-path="url(#12bdc578d7)"><path fill="#ff3131" d="M 0.144531 6.808594 L 61.308594 6.808594 L 61.308594 67.972656 L 0.144531 67.972656 Z M 0.144531 6.808594 " fill-opacity="1" fill-rule="nonzero"/></g></g><g clip-path="url(#5012860e4d)"><g clip-path="url(#b982ca123d)"><path fill="#ffffff" d="M 30.722656 17.089844 C 21.578125 17.089844 14.160156 24.503906 14.160156 33.652344 C 14.160156 42.796875 30.722656 62.257812 30.722656 62.257812 C 30.722656 62.257812 47.285156 42.796875 47.285156 33.652344 C 47.285156 24.503906 39.871094 17.089844 30.722656 17.089844 Z M 30.722656 46.542969 C 23.65625 46.542969 17.925781 40.8125 17.925781 33.746094 C 17.925781 26.675781 23.65625 20.945312 30.722656 20.945312 C 37.792969 20.945312 43.519531 26.675781 43.519531 33.746094 C 43.519531 40.8125 37.792969 46.542969 30.722656 46.542969 Z M 30.722656 46.542969 " fill-opacity="1" fill-rule="nonzero"/></g></g><g clip-path="url(#fde28943dc)"><g clip-path="url(#f8b633c385)"><path fill="#ffffff" d="M 39.003906 33.652344 L 39.003906 38.921875 L 36.746094 38.921875 L 36.746094 35.910156 L 24.699219 35.910156 L 24.699219 38.921875 L 22.441406 38.921875 L 22.441406 27.628906 L 24.699219 27.628906 L 24.699219 33.652344 Z M 39.003906 33.652344 " fill-opacity="1" fill-rule="nonzero"/></g></g><g clip-path="url(#4b767f3d04)"><g clip-path="url(#1209beaaa0)"><path fill="#ffffff" d="M 24.699219 30.640625 L 39.003906 30.640625 L 39.003906 33.652344 L 24.699219 33.652344 Z M 24.699219 30.640625 " fill-opacity="1" fill-rule="nonzero"/></g></g><g clip-path="url(#17f0baa21c)"><g clip-path="url(#a7fb7f4d05)"><path fill="#ffffff" d="M 30.722656 16.335938 C 21.175781 16.335938 13.410156 24.101562 13.410156 33.652344 C 13.410156 42.96875 29.464844 61.941406 30.148438 62.746094 C 30.292969 62.914062 30.503906 63.007812 30.722656 63.007812 C 30.945312 63.007812 31.152344 62.914062 31.296875 62.746094 C 31.980469 61.941406 48.039062 42.96875 48.039062 33.652344 C 48.039062 24.101562 40.269531 16.335938 30.722656 16.335938 Z M 30.722656 61.082031 C 27.820312 57.5625 14.914062 41.472656 14.914062 33.652344 C 14.914062 24.933594 22.007812 17.84375 30.722656 17.84375 C 39.441406 17.84375 46.53125 24.933594 46.53125 33.652344 C 46.53125 41.46875 33.625 57.5625 30.722656 61.082031 Z M 30.722656 61.082031 " fill-opacity="1" fill-rule="nonzero"/></g></g><g clip-path="url(#1f4451a1c7)"><g clip-path="url(#bf830198c6)"><path fill="#ffffff" d="M 30.722656 20.195312 C 23.253906 20.195312 17.171875 26.273438 17.171875 33.746094 C 17.171875 41.214844 23.253906 47.296875 30.722656 47.296875 C 38.195312 47.296875 44.273438 41.214844 44.273438 33.746094 C 44.273438 26.273438 38.195312 20.195312 30.722656 20.195312 Z M 30.722656 45.789062 C 24.082031 45.789062 18.679688 40.386719 18.679688 33.746094 C 18.679688 27.101562 24.082031 21.699219 30.722656 21.699219 C 37.363281 21.699219 42.769531 27.101562 42.769531 33.746094 C 42.769531 40.386719 37.363281 45.789062 30.722656 45.789062 Z M 30.722656 45.789062 " fill-opacity="1" fill-rule="nonzero"/></g></g><g clip-path="url(#dd96fc54c8)"><g clip-path="url(#c7812ff3a9)"><path fill="#ffffff" d="M 39.003906 29.886719 L 25.453125 29.886719 L 25.453125 27.628906 C 25.453125 27.210938 25.117188 26.875 24.699219 26.875 L 22.441406 26.875 C 22.027344 26.875 21.691406 27.210938 21.691406 27.628906 L 21.691406 38.921875 C 21.691406 39.335938 22.027344 39.671875 22.441406 39.671875 L 24.699219 39.671875 C 25.117188 39.671875 25.453125 39.335938 25.453125 38.921875 L 25.453125 36.660156 L 35.992188 36.660156 L 35.992188 38.921875 C 35.992188 39.335938 36.328125 39.671875 36.746094 39.671875 L 39.003906 39.671875 C 39.421875 39.671875 39.757812 39.335938 39.757812 38.921875 L 39.757812 30.640625 C 39.757812 30.222656 39.421875 29.886719 39.003906 29.886719 Z M 38.25 38.167969 L 37.5 38.167969 L 37.5 35.910156 C 37.5 35.492188 37.160156 35.15625 36.746094 35.15625 L 24.699219 35.15625 C 24.285156 35.15625 23.949219 35.492188 23.949219 35.910156 L 23.949219 38.167969 L 23.195312 38.167969 L 23.195312 28.382812 L 23.949219 28.382812 L 23.949219 33.652344 C 23.949219 34.066406 24.285156 34.402344 24.699219 34.402344 L 38.25 34.402344 Z M 38.25 32.898438 L 25.453125 32.898438 L 25.453125 31.390625 L 38.25 31.390625 Z M 38.25 32.898438 " fill-opacity="1" fill-rule="nonzero"/></g></g><g fill="#ffffff" fill-opacity="1"><g transform="translate(72.976177, 55.444393)"><g><path d="M 25.625 -14.921875 L 10.65625 -14.921875 L 10.65625 1.265625 L 3.296875 1.265625 L 3.296875 -36.78125 L 10.65625 -36.78125 L 10.65625 -21.609375 L 25.625 -21.609375 L 25.625 -36.78125 L 32.984375 -36.78125 L 32.984375 1.265625 L 25.625 1.265625 Z M 25.625 -14.921875 "/></g></g></g><g fill="#ffffff" fill-opacity="1"><g transform="translate(109.243677, 55.444393)"><g><path d="M 22.375 -13.1875 C 22.375 -14.375 22.1875 -15.492188 21.8125 -16.546875 C 21.4375 -17.554688 20.929688 -18.453125 20.296875 -19.234375 C 20.054688 -19.460938 19.816406 -19.6875 19.578125 -19.90625 C 19.347656 -20.132812 19.097656 -20.335938 18.828125 -20.515625 C 18.554688 -20.703125 18.265625 -20.863281 17.953125 -21 C 17.546875 -21.238281 17.109375 -21.40625 16.640625 -21.5 C 16.171875 -21.601562 15.679688 -21.65625 15.171875 -21.65625 C 12.898438 -21.65625 11.140625 -20.929688 9.890625 -19.484375 C 8.609375 -17.960938 7.96875 -15.898438 7.96875 -13.296875 C 7.96875 -12.109375 8.148438 -10.988281 8.515625 -9.9375 C 8.585938 -9.769531 8.65625 -9.601562 8.71875 -9.4375 C 8.789062 -9.269531 8.867188 -9.097656 8.953125 -8.921875 C 9.035156 -8.753906 9.117188 -8.59375 9.203125 -8.4375 C 9.285156 -8.289062 9.367188 -8.148438 9.453125 -8.015625 C 9.546875 -7.878906 9.640625 -7.734375 9.734375 -7.578125 C 9.835938 -7.429688 9.957031 -7.304688 10.09375 -7.203125 C 10.300781 -6.929688 10.519531 -6.6875 10.75 -6.46875 C 10.988281 -6.25 11.242188 -6.046875 11.515625 -5.859375 C 11.785156 -5.671875 12.070312 -5.507812 12.375 -5.375 C 12.78125 -5.132812 13.21875 -4.960938 13.6875 -4.859375 C 14.164062 -4.765625 14.660156 -4.71875 15.171875 -4.71875 C 16.316406 -4.71875 17.332031 -4.921875 18.21875 -5.328125 C 18.65625 -5.523438 19.050781 -5.757812 19.40625 -6.03125 C 19.757812 -6.300781 20.085938 -6.625 20.390625 -7 C 21.035156 -7.707031 21.523438 -8.585938 21.859375 -9.640625 C 22.203125 -10.691406 22.375 -11.875 22.375 -13.1875 Z M 0.765625 -13.1875 C 0.765625 -15.488281 1.132812 -17.570312 1.875 -19.4375 C 2.625 -21.289062 3.640625 -22.867188 4.921875 -24.171875 C 6.203125 -25.472656 7.722656 -26.476562 9.484375 -27.1875 C 11.242188 -27.90625 13.140625 -28.265625 15.171875 -28.265625 C 15.679688 -28.265625 16.171875 -28.238281 16.640625 -28.1875 C 17.109375 -28.132812 17.578125 -28.066406 18.046875 -27.984375 C 18.523438 -27.898438 18.992188 -27.789062 19.453125 -27.65625 C 19.910156 -27.519531 20.359375 -27.363281 20.796875 -27.1875 C 21.679688 -26.851562 22.503906 -26.429688 23.265625 -25.921875 C 24.023438 -25.421875 24.742188 -24.847656 25.421875 -24.203125 C 26.703125 -22.878906 27.71875 -21.289062 28.46875 -19.4375 C 29.207031 -17.601562 29.578125 -15.550781 29.578125 -13.28125 C 29.578125 -11.019531 29.222656 -8.960938 28.515625 -7.109375 C 27.765625 -5.242188 26.75 -3.648438 25.46875 -2.328125 C 24.820312 -1.648438 24.109375 -1.050781 23.328125 -0.53125 C 22.554688 -0.0078125 21.734375 0.4375 20.859375 0.8125 C 19.097656 1.519531 17.203125 1.875 15.171875 1.875 C 14.148438 1.875 13.15625 1.78125 12.1875 1.59375 C 11.226562 1.40625 10.3125 1.128906 9.4375 0.765625 C 7.675781 0.015625 6.148438 -1.023438 4.859375 -2.359375 C 3.578125 -3.691406 2.566406 -5.289062 1.828125 -7.15625 C 1.117188 -8.976562 0.765625 -10.988281 0.765625 -13.1875 Z M 0.765625 -13.1875 "/></g></g></g><g fill="#ffffff" fill-opacity="1"><g transform="translate(139.576496, 55.444393)"><g><path d="M 6.140625 -35 L 10.90625 -35 L 10.90625 -26.6875 L 18.21875 -26.6875 L 18.21875 -20.1875 L 10.90625 -20.1875 L 10.90625 -8.71875 C 10.90625 -7.875 10.988281 -7.179688 11.15625 -6.640625 C 11.332031 -6.140625 11.535156 -5.753906 11.765625 -5.484375 C 12.003906 -5.210938 12.296875 -5.023438 12.640625 -4.921875 C 12.835938 -4.847656 13.035156 -4.796875 13.234375 -4.765625 C 13.441406 -4.734375 13.644531 -4.71875 13.84375 -4.71875 C 14.5625 -4.71875 15.207031 -4.816406 15.78125 -5.015625 C 16.488281 -5.285156 17.144531 -5.59375 17.75 -5.9375 L 19.078125 -6.640625 L 19.578125 -5.21875 L 20.859375 -1.578125 L 21.15625 -0.609375 L 20.296875 -0.09375 C 19.546875 0.375 18.546875 0.8125 17.296875 1.21875 C 16.660156 1.457031 16.003906 1.625 15.328125 1.71875 C 14.648438 1.820312 13.972656 1.875 13.296875 1.875 C 10.378906 1.875 8.0625 0.910156 6.34375 -1.015625 C 5.457031 -1.992188 4.8125 -3.160156 4.40625 -4.515625 C 4.007812 -5.867188 3.8125 -7.390625 3.8125 -9.078125 L 3.8125 -20.1875 L -0.765625 -20.1875 L -0.765625 -26.6875 L 4.0625 -26.6875 L 4.875 -33.890625 L 5.015625 -35 Z M 6.140625 -35 "/></g></g></g><g fill="#ffffff" fill-opacity="1"><g transform="translate(159.713842, 55.444393)"><g><path d="M 8.46875 -10.046875 C 8.84375 -8.554688 9.488281 -7.351562 10.40625 -6.4375 C 11.582031 -5.289062 13.171875 -4.71875 15.171875 -4.71875 C 15.640625 -4.71875 16.09375 -4.734375 16.53125 -4.765625 C 16.976562 -4.796875 17.40625 -4.84375 17.8125 -4.90625 C 18.21875 -4.976562 18.601562 -5.066406 18.96875 -5.171875 C 19.34375 -5.273438 19.71875 -5.382812 20.09375 -5.5 C 20.46875 -5.625 20.832031 -5.753906 21.1875 -5.890625 C 21.539062 -6.023438 21.898438 -6.175781 22.265625 -6.34375 L 23.59375 -6.953125 L 24 -5.53125 L 25.0625 -1.625 L 25.359375 -0.5625 L 24.40625 -0.09375 C 23.082031 0.507812 21.609375 0.976562 19.984375 1.3125 C 19.171875 1.519531 18.316406 1.664062 17.421875 1.75 C 16.523438 1.832031 15.585938 1.875 14.609375 1.875 C 12.546875 1.875 10.671875 1.535156 8.984375 0.859375 C 7.285156 0.148438 5.847656 -0.863281 4.671875 -2.1875 C 3.484375 -3.46875 2.566406 -5.054688 1.921875 -6.953125 C 1.316406 -8.773438 1.015625 -10.851562 1.015625 -13.1875 C 1.015625 -15.289062 1.316406 -17.253906 1.921875 -19.078125 C 2.265625 -19.992188 2.65625 -20.851562 3.09375 -21.65625 C 3.53125 -22.46875 4.035156 -23.210938 4.609375 -23.890625 C 5.765625 -25.242188 7.15625 -26.3125 8.78125 -27.09375 C 10.40625 -27.875 12.210938 -28.265625 14.203125 -28.265625 C 14.878906 -28.265625 15.53125 -28.21875 16.15625 -28.125 C 16.78125 -28.039062 17.390625 -27.921875 17.984375 -27.765625 C 18.578125 -27.617188 19.144531 -27.425781 19.6875 -27.1875 C 20.5 -26.820312 21.234375 -26.394531 21.890625 -25.90625 C 22.546875 -25.414062 23.144531 -24.847656 23.6875 -24.203125 C 24.738281 -22.953125 25.535156 -21.515625 26.078125 -19.890625 C 26.316406 -19.078125 26.503906 -18.238281 26.640625 -17.375 C 26.773438 -16.507812 26.84375 -15.640625 26.84375 -14.765625 C 26.84375 -14.523438 26.84375 -14.285156 26.84375 -14.046875 C 26.84375 -13.816406 26.832031 -13.570312 26.8125 -13.3125 C 26.789062 -13.0625 26.78125 -12.816406 26.78125 -12.578125 C 26.78125 -12.347656 26.769531 -12.117188 26.75 -11.890625 C 26.738281 -11.671875 26.71875 -11.445312 26.6875 -11.21875 L 26.578125 -10.046875 Z M 14.109375 -21.765625 C 12.484375 -21.765625 11.160156 -21.222656 10.140625 -20.140625 C 9.734375 -19.703125 9.378906 -19.160156 9.078125 -18.515625 C 8.773438 -17.867188 8.539062 -17.125 8.375 -16.28125 L 20.046875 -16.28125 C 19.867188 -17.90625 19.359375 -19.175781 18.515625 -20.09375 C 17.460938 -21.207031 15.992188 -21.765625 14.109375 -21.765625 Z M 14.109375 -21.765625 "/></g></g></g><g fill="#ffffff" fill-opacity="1"><g transform="translate(187.307576, 55.444393)"><g><path d="M 9.640625 -8.71875 C 9.640625 -7.195312 9.910156 -6.117188 10.453125 -5.484375 C 10.960938 -4.898438 11.707031 -4.609375 12.6875 -4.609375 C 13.226562 -4.609375 13.75 -4.675781 14.25 -4.8125 C 14.789062 -4.945312 15.265625 -5.101562 15.671875 -5.28125 L 17 -5.828125 L 17.40625 -4.46875 L 18.515625 -0.765625 L 18.828125 0.296875 L 17.8125 0.765625 C 17.132812 1.066406 16.304688 1.316406 15.328125 1.515625 C 14.335938 1.753906 13.253906 1.875 12.078125 1.875 C 10.753906 1.875 9.519531 1.6875 8.375 1.3125 C 7.21875 0.90625 6.203125 0.28125 5.328125 -0.5625 C 4.453125 -1.40625 3.757812 -2.46875 3.25 -3.75 C 2.769531 -5 2.53125 -6.503906 2.53125 -8.265625 L 2.53125 -38.8125 L 9.640625 -38.8125 Z M 9.640625 -8.71875 "/></g></g></g><g fill="#ffffff" fill-opacity="1"><g transform="translate(204.858016, 55.444393)"><g/></g></g><g fill="#ffffff" fill-opacity="1"><g transform="translate(220.075152, 55.444393)"><g><path d="M 4.8125 -8.015625 C 5.382812 -7.546875 5.984375 -7.125 6.609375 -6.75 C 7.242188 -6.375 7.914062 -6.035156 8.625 -5.734375 C 9.976562 -5.160156 11.582031 -4.875 13.4375 -4.875 C 14.550781 -4.875 15.519531 -4.984375 16.34375 -5.203125 C 17.175781 -5.421875 17.882812 -5.734375 18.46875 -6.140625 C 19.550781 -6.921875 20.09375 -7.953125 20.09375 -9.234375 C 20.09375 -9.335938 20.09375 -9.445312 20.09375 -9.5625 C 20.09375 -9.675781 20.082031 -9.785156 20.0625 -9.890625 C 20.039062 -9.992188 20.019531 -10.101562 20 -10.21875 C 19.988281 -10.34375 19.96875 -10.445312 19.9375 -10.53125 C 19.90625 -10.613281 19.867188 -10.707031 19.828125 -10.8125 C 19.691406 -11.21875 19.40625 -11.625 18.96875 -12.03125 C 18.457031 -12.5 17.734375 -12.988281 16.796875 -13.5 C 15.742188 -14.039062 14.40625 -14.628906 12.78125 -15.265625 C 10.882812 -15.984375 9.296875 -16.710938 8.015625 -17.453125 C 6.628906 -18.191406 5.492188 -19.019531 4.609375 -19.9375 C 4.304688 -20.28125 4.035156 -20.617188 3.796875 -20.953125 C 3.566406 -21.285156 3.347656 -21.640625 3.140625 -22.015625 C 2.941406 -22.390625 2.773438 -22.765625 2.640625 -23.140625 C 2.265625 -24.285156 2.078125 -25.566406 2.078125 -26.984375 C 2.078125 -28.441406 2.378906 -29.8125 2.984375 -31.09375 C 3.597656 -32.382812 4.492188 -33.503906 5.671875 -34.453125 C 6.828125 -35.359375 8.234375 -36.082031 9.890625 -36.625 C 11.515625 -37.132812 13.359375 -37.390625 15.421875 -37.390625 C 17.617188 -37.390625 19.597656 -37.171875 21.359375 -36.734375 C 23.117188 -36.296875 24.84375 -35.671875 26.53125 -34.859375 L 27.59375 -34.296875 L 27.140625 -33.1875 L 25.359375 -29.078125 L 24.8125 -27.75 L 23.53125 -28.46875 C 23.195312 -28.695312 22.832031 -28.894531 22.4375 -29.0625 C 22.050781 -29.238281 21.640625 -29.410156 21.203125 -29.578125 C 20.765625 -29.742188 20.289062 -29.910156 19.78125 -30.078125 C 18.363281 -30.484375 16.875 -30.6875 15.3125 -30.6875 C 14.300781 -30.6875 13.414062 -30.59375 12.65625 -30.40625 C 11.894531 -30.226562 11.257812 -29.96875 10.75 -29.625 C 10.414062 -29.394531 10.144531 -29.160156 9.9375 -28.921875 C 9.738281 -28.679688 9.59375 -28.425781 9.5 -28.15625 C 9.414062 -27.882812 9.375 -27.582031 9.375 -27.25 C 9.375 -26.707031 9.441406 -26.25 9.578125 -25.875 C 9.679688 -25.53125 9.9375 -25.191406 10.34375 -24.859375 C 10.582031 -24.660156 10.867188 -24.445312 11.203125 -24.21875 C 11.546875 -24 11.953125 -23.773438 12.421875 -23.546875 C 12.660156 -23.441406 12.914062 -23.320312 13.1875 -23.1875 C 13.457031 -23.050781 13.753906 -22.914062 14.078125 -22.78125 C 14.398438 -22.644531 14.742188 -22.507812 15.109375 -22.375 C 15.484375 -22.238281 15.875 -22.085938 16.28125 -21.921875 C 18.3125 -21.171875 20.019531 -20.390625 21.40625 -19.578125 C 21.707031 -19.410156 21.992188 -19.242188 22.265625 -19.078125 C 22.535156 -18.910156 22.789062 -18.734375 23.03125 -18.546875 C 23.269531 -18.359375 23.503906 -18.171875 23.734375 -17.984375 C 23.972656 -17.796875 24.191406 -17.609375 24.390625 -17.421875 C 24.597656 -17.234375 24.785156 -17.039062 24.953125 -16.84375 C 25.898438 -15.832031 26.578125 -14.734375 26.984375 -13.546875 C 27.390625 -12.398438 27.59375 -11.148438 27.59375 -9.796875 C 27.59375 -7.929688 27.222656 -6.269531 26.484375 -4.8125 C 25.765625 -3.363281 24.765625 -2.128906 23.484375 -1.109375 C 22.234375 -0.0976562 20.726562 0.660156 18.96875 1.171875 C 17.28125 1.640625 15.4375 1.875 13.4375 1.875 C 10.832031 1.875 8.445312 1.519531 6.28125 0.8125 C 4.125 0.101562 2.300781 -0.828125 0.8125 -1.984375 L -0.109375 -2.6875 L 0.5 -3.65625 L 2.9375 -7.71875 L 3.703125 -8.984375 Z M 4.8125 -8.015625 "/></g></g></g><g fill="#ffffff" fill-opacity="1"><g transform="translate(248.886264, 55.444393)"><g><path d="M 4.765625 13.03125 C 4.660156 13.03125 4.550781 13.03125 4.4375 13.03125 C 4.320312 13.03125 4.210938 13.03125 4.109375 13.03125 C 4.003906 13.03125 3.898438 13.019531 3.796875 13 C 3.703125 12.988281 3.601562 12.984375 3.5 12.984375 C 3.394531 12.984375 3.289062 12.972656 3.1875 12.953125 C 3.09375 12.941406 2.992188 12.925781 2.890625 12.90625 C 2.785156 12.894531 2.691406 12.878906 2.609375 12.859375 C 2.523438 12.835938 2.429688 12.816406 2.328125 12.796875 C 2.222656 12.785156 2.128906 12.769531 2.046875 12.75 C 1.960938 12.738281 1.867188 12.71875 1.765625 12.6875 C 0.890625 12.445312 0.179688 12.160156 -0.359375 11.828125 L -1.171875 11.359375 L -0.921875 10.453125 L 0.09375 6.640625 L 0.5 5.015625 L 1.96875 5.828125 C 2.28125 6.035156 2.671875 6.207031 3.140625 6.34375 C 3.648438 6.476562 4.222656 6.546875 4.859375 6.546875 C 5.171875 6.546875 5.453125 6.523438 5.703125 6.484375 C 5.953125 6.453125 6.210938 6.390625 6.484375 6.296875 C 6.691406 6.222656 6.910156 6.117188 7.140625 5.984375 C 7.378906 5.847656 7.601562 5.679688 7.8125 5.484375 C 8.3125 5.078125 8.785156 4.484375 9.234375 3.703125 C 9.703125 2.890625 10.191406 1.859375 10.703125 0.609375 L 11.203125 -0.703125 L 9.78125 -0.703125 L 9.4375 -1.46875 L -0.859375 -24.65625 L -1.375 -25.828125 L -0.203125 -26.328125 L 3.859375 -28.15625 L 5.015625 -28.671875 L 5.53125 -27.5 L 14.046875 -8.421875 L 20.640625 -27.1875 L 21.109375 -28.46875 L 22.3125 -27.953125 L 26.53125 -26.328125 L 27.703125 -25.875 L 27.234375 -24.703125 L 17.546875 1.78125 C 17.410156 2.1875 17.265625 2.582031 17.109375 2.96875 C 16.960938 3.351562 16.804688 3.734375 16.640625 4.109375 C 16.472656 4.484375 16.300781 4.835938 16.125 5.171875 C 15.957031 5.515625 15.789062 5.835938 15.625 6.140625 C 15.457031 6.441406 15.285156 6.742188 15.109375 7.046875 C 14.671875 7.765625 14.207031 8.414062 13.71875 9 C 13.226562 9.59375 12.710938 10.109375 12.171875 10.546875 C 11.628906 11.023438 11.0625 11.425781 10.46875 11.75 C 9.875 12.070312 9.273438 12.316406 8.671875 12.484375 C 7.453125 12.847656 6.148438 13.03125 4.765625 13.03125 Z M 4.765625 13.03125 "/></g></g></g><g fill="#ffffff" fill-opacity="1"><g transform="translate(275.4148, 55.444393)"><g><path d="M 9.734375 -25.3125 C 10.003906 -25.582031 10.273438 -25.816406 10.546875 -26.015625 C 10.816406 -26.222656 11.109375 -26.410156 11.421875 -26.578125 C 13.109375 -27.703125 15.082031 -28.265625 17.34375 -28.265625 C 19.007812 -28.265625 20.484375 -28 21.765625 -27.46875 C 23.046875 -26.945312 24.128906 -26.160156 25.015625 -25.109375 C 26.671875 -23.078125 27.5 -20.441406 27.5 -17.203125 L 27.5 1.265625 L 20.390625 1.265625 L 20.390625 -16.6875 C 20.390625 -17.257812 20.347656 -17.78125 20.265625 -18.25 C 20.179688 -18.726562 20.0625 -19.15625 19.90625 -19.53125 C 19.757812 -19.90625 19.566406 -20.226562 19.328125 -20.5 C 19.128906 -20.769531 18.898438 -20.992188 18.640625 -21.171875 C 18.390625 -21.359375 18.09375 -21.492188 17.75 -21.578125 C 17.414062 -21.671875 17.03125 -21.71875 16.59375 -21.71875 C 15.976562 -21.71875 15.367188 -21.597656 14.765625 -21.359375 C 14.117188 -21.117188 13.492188 -20.78125 12.890625 -20.34375 C 12.273438 -19.875 11.695312 -19.347656 11.15625 -18.765625 C 10.957031 -18.492188 10.738281 -18.210938 10.5 -17.921875 C 10.257812 -17.640625 10.054688 -17.363281 9.890625 -17.09375 L 9.890625 1.265625 L 2.796875 1.265625 L 2.796875 -27.65625 L 9.734375 -27.65625 Z M 9.734375 -25.3125 "/></g></g></g><g fill="#ffffff" fill-opacity="1"><g transform="translate(305.44329, 55.444393)"><g><path d="M 20.34375 -20.390625 C 20.039062 -20.566406 19.742188 -20.710938 19.453125 -20.828125 C 19.171875 -20.941406 18.894531 -21.039062 18.625 -21.125 C 18.351562 -21.207031 18.097656 -21.285156 17.859375 -21.359375 C 17.484375 -21.460938 17.082031 -21.535156 16.65625 -21.578125 C 16.238281 -21.628906 15.796875 -21.65625 15.328125 -21.65625 C 14.304688 -21.65625 13.359375 -21.472656 12.484375 -21.109375 C 11.640625 -20.734375 10.910156 -20.207031 10.296875 -19.53125 C 9.648438 -18.820312 9.144531 -17.957031 8.78125 -16.9375 C 8.601562 -16.40625 8.460938 -15.84375 8.359375 -15.25 C 8.265625 -14.65625 8.21875 -14.003906 8.21875 -13.296875 C 8.21875 -12.046875 8.382812 -10.894531 8.71875 -9.84375 C 9.0625 -8.789062 9.554688 -7.878906 10.203125 -7.109375 C 10.773438 -6.359375 11.46875 -5.765625 12.28125 -5.328125 C 13.09375 -4.921875 14.003906 -4.71875 15.015625 -4.71875 C 16.171875 -4.71875 17.148438 -4.835938 17.953125 -5.078125 C 18.765625 -5.304688 19.664062 -5.691406 20.65625 -6.234375 L 21.921875 -6.953125 L 22.421875 -5.578125 L 23.84375 -1.71875 L 24.25 -0.65625 L 23.28125 -0.15625 C 22.101562 0.457031 20.820312 0.945312 19.4375 1.3125 C 18.039062 1.6875 16.46875 1.875 14.71875 1.875 C 14.375 1.875 14.03125 1.863281 13.6875 1.84375 C 13.351562 1.832031 13.023438 1.800781 12.703125 1.75 C 12.390625 1.695312 12.078125 1.644531 11.765625 1.59375 C 11.460938 1.539062 11.160156 1.472656 10.859375 1.390625 C 10.554688 1.304688 10.25 1.210938 9.9375 1.109375 C 9.632812 1.015625 9.347656 0.898438 9.078125 0.765625 C 7.390625 0.015625 5.9375 -1.035156 4.71875 -2.390625 C 3.53125 -3.734375 2.617188 -5.335938 1.984375 -7.203125 C 1.335938 -9.023438 1.015625 -11.019531 1.015625 -13.1875 C 1.015625 -15.21875 1.335938 -17.144531 1.984375 -18.96875 C 2.617188 -20.800781 3.546875 -22.410156 4.765625 -23.796875 C 6.015625 -25.179688 7.503906 -26.265625 9.234375 -27.046875 C 10.109375 -27.453125 11.035156 -27.753906 12.015625 -27.953125 C 13.003906 -28.160156 14.019531 -28.265625 15.0625 -28.265625 C 15.875 -28.265625 16.632812 -28.226562 17.34375 -28.15625 C 18.0625 -28.09375 18.722656 -27.972656 19.328125 -27.796875 C 20.515625 -27.523438 21.679688 -27.117188 22.828125 -26.578125 L 23.84375 -26.078125 L 23.484375 -25.015625 L 22.125 -21.15625 L 21.609375 -19.78125 Z M 20.34375 -20.390625 "/></g></g></g></svg>