<svg xmlns="http://www.w3.org/2000/svg" xmlns:xlink="http://www.w3.org/1999/xlink" width="432" zoomAndPan="magnify" viewBox="0 0 324 323.999988" height="432" preserveAspectRatio="xMidYMid meet" version="1.0"><defs><clipPath id="be148dd449"><path d="M 75 0 L 249 0 C 290.421875 0 324 33.578125 324 75 L 324 249 C 324 290.421875 290.421875 324 249 324 L 75 324 C 33.578125 324 0 290.421875 0 249 L 0 75 C 0 33.578125 33.578125 0 75 0 Z M 75 0 " clip-rule="nonzero"/></clipPath><clipPath id="3f91b64a93"><path d="M 62.011719 27.210938 L 262 27.210938 L 262 296.460938 L 62.011719 296.460938 Z M 62.011719 27.210938 " clip-rule="nonzero"/></clipPath></defs><g clip-path="url(#be148dd449)"><rect x="-32.4" width="388.8" fill="#ff3131" y="-32.399999" height="388.799985" fill-opacity="1"/></g><path fill="#ffffff" d="M 161.996094 31.582031 C 109.179688 31.582031 66.359375 74.398438 66.359375 127.21875 C 66.359375 180.035156 161.996094 292.410156 161.996094 292.410156 C 161.996094 292.410156 257.632812 180.035156 257.632812 127.21875 C 257.632812 74.398438 214.8125 31.582031 161.996094 31.582031 Z M 161.996094 201.664062 C 121.179688 201.664062 88.09375 168.574219 88.09375 127.761719 C 88.09375 86.945312 121.179688 53.859375 161.996094 53.859375 C 202.808594 53.859375 235.898438 86.945312 235.898438 127.761719 C 235.898438 168.574219 202.808594 201.664062 161.996094 201.664062 Z M 161.996094 201.664062 " fill-opacity="1" fill-rule="nonzero"/><path fill="#ffffff" d="M 209.816406 127.21875 L 209.816406 157.648438 L 196.773438 157.648438 L 196.773438 140.257812 L 127.21875 140.257812 L 127.21875 157.648438 L 114.175781 157.648438 L 114.175781 92.441406 L 127.21875 92.441406 L 127.21875 127.21875 Z M 209.816406 127.21875 " fill-opacity="1" fill-rule="nonzero"/><path fill="#ffffff" d="M 127.21875 109.828125 L 209.816406 109.828125 L 209.816406 127.21875 L 127.21875 127.21875 Z M 127.21875 109.828125 " fill-opacity="1" fill-rule="nonzero"/><g clip-path="url(#3f91b64a93)"><path fill="#ffffff" d="M 161.996094 27.234375 C 106.863281 27.234375 62.011719 72.085938 62.011719 127.21875 C 62.011719 181.019531 154.734375 290.589844 158.6875 295.230469 C 159.511719 296.195312 160.71875 296.757812 161.996094 296.757812 C 163.273438 296.757812 164.480469 296.195312 165.304688 295.230469 C 169.253906 290.589844 261.980469 181.019531 261.980469 127.21875 C 261.980469 72.085938 217.128906 27.234375 161.996094 27.234375 Z M 161.996094 285.617188 C 145.238281 265.304688 70.707031 172.390625 70.707031 127.21875 C 70.707031 76.878906 111.65625 35.925781 161.996094 35.925781 C 212.335938 35.925781 253.285156 76.878906 253.285156 127.21875 C 253.285156 172.375 178.753906 265.300781 161.996094 285.617188 Z M 161.996094 285.617188 " fill-opacity="1" fill-rule="nonzero"/></g><path fill="#ffffff" d="M 161.996094 49.511719 C 118.851562 49.511719 83.746094 84.617188 83.746094 127.761719 C 83.746094 170.90625 118.851562 206.007812 161.996094 206.007812 C 205.140625 206.007812 240.246094 170.90625 240.246094 127.761719 C 240.246094 84.617188 205.140625 49.511719 161.996094 49.511719 Z M 161.996094 197.316406 C 123.644531 197.316406 92.441406 166.113281 92.441406 127.761719 C 92.441406 89.410156 123.644531 58.207031 161.996094 58.207031 C 200.347656 58.207031 231.550781 89.410156 231.550781 127.761719 C 231.550781 166.113281 200.347656 197.316406 161.996094 197.316406 Z M 161.996094 197.316406 " fill-opacity="1" fill-rule="nonzero"/><path fill="#ffffff" d="M 209.816406 105.480469 L 131.566406 105.480469 L 131.566406 92.441406 C 131.566406 90.039062 129.621094 88.09375 127.21875 88.09375 L 114.175781 88.09375 C 111.777344 88.09375 109.832031 90.039062 109.832031 92.441406 L 109.832031 157.648438 C 109.832031 160.050781 111.777344 161.996094 114.175781 161.996094 L 127.21875 161.996094 C 129.621094 161.996094 131.566406 160.050781 131.566406 157.648438 L 131.566406 144.605469 L 192.425781 144.605469 L 192.425781 157.648438 C 192.425781 160.050781 194.371094 161.996094 196.773438 161.996094 L 209.816406 161.996094 C 212.214844 161.996094 214.160156 160.050781 214.160156 157.648438 L 214.160156 109.828125 C 214.160156 107.425781 212.214844 105.480469 209.816406 105.480469 Z M 205.46875 153.300781 L 201.121094 153.300781 L 201.121094 140.257812 C 201.121094 137.855469 199.175781 135.910156 196.773438 135.910156 L 127.21875 135.910156 C 124.816406 135.910156 122.871094 137.855469 122.871094 140.257812 L 122.871094 153.300781 L 118.523438 153.300781 L 118.523438 96.789062 L 122.871094 96.789062 L 122.871094 127.21875 C 122.871094 129.621094 124.816406 131.566406 127.21875 131.566406 L 205.46875 131.566406 Z M 205.46875 122.871094 L 131.566406 122.871094 L 131.566406 114.175781 L 205.46875 114.175781 Z M 205.46875 122.871094 " fill-opacity="1" fill-rule="nonzero"/></svg>